<svg width="24" height="25" viewBox="0 0 24 25" fill="none" xmlns="http://www.w3.org/2000/svg">
<path d="M12.8192 24.8369H1.32462C0.592836 24.8369 0 24.227 0 23.475V1.52488C0 0.772657 0.592929 0.163086 1.32462 0.163086H22.6755C23.407 0.163086 24 0.772657 24 1.52488V23.475C24 24.2271 23.4069 24.8369 22.6755 24.8369H16.5597V15.2818H19.6793L20.1464 11.5581H16.5597V9.18066C16.5597 8.10254 16.8509 7.36784 18.3546 7.36784L20.2727 7.36698V4.0364C19.9409 3.99102 18.8024 3.88964 17.4778 3.88964C14.7124 3.88964 12.8192 5.625 12.8192 8.81187V11.5581H9.69156V15.2818H12.8192V24.8369Z" fill="#F9FAFB"/>
</svg>
