<svg width="24" height="19" viewBox="0 0 24 19" fill="none" xmlns="http://www.w3.org/2000/svg">
<path fill-rule="evenodd" clip-rule="evenodd" d="M22.806 2.06502C23.5252 2.81902 23.76 4.53126 23.76 4.53126C23.76 4.53126 24 6.54247 24 8.55289V10.4383C24 12.4495 23.76 14.4599 23.76 14.4599C23.76 14.4599 23.5252 16.1722 22.806 16.9262C21.9837 17.8181 21.0719 17.9103 20.5565 17.9624C20.4998 17.9681 20.4479 17.9734 20.4015 17.9791C17.043 18.2307 12 18.2385 12 18.2385C12 18.2385 5.76 18.1795 3.84 17.9885C3.74903 17.9709 3.63876 17.9572 3.51388 17.9417C2.9057 17.8661 1.95113 17.7476 1.19325 16.9262C0.474 16.1722 0.24 14.4599 0.24 14.4599C0.24 14.4599 0 12.4495 0 10.4383V8.55289C0 6.54247 0.24 4.53126 0.24 4.53126C0.24 4.53126 0.474 2.81902 1.19325 2.06502C2.0174 1.17179 2.93006 1.08063 3.44548 1.02914C3.50136 1.02356 3.55258 1.01845 3.5985 1.01283C6.957 0.76123 11.9948 0.76123 11.9948 0.76123H12.0052C12.0052 0.76123 17.043 0.76123 20.4015 1.01283C20.4474 1.01845 20.4987 1.02358 20.5546 1.02917C21.0696 1.08066 21.9827 1.17194 22.806 2.06502ZM9.52125 5.74109L9.522 12.7228L16.0057 9.244L9.52125 5.74109Z" fill="#F9FAFB"/>
</svg>
